<svg width="59" height="67" viewBox="0 0 59 67" fill="none" xmlns="http://www.w3.org/2000/svg">
<g clip-path="url(#clip0_51_1301)">
<path d="M34.6074 66.1774C34.498 65.9058 34.2168 65.9498 34.01 65.8816C32.6779 65.5056 31.5512 64.6088 30.8821 63.3916C30.213 62.1746 30.0572 60.7388 30.4496 59.4054C31.3104 56.6244 34.2366 55.0561 37.0146 55.887C37.4648 56.0216 37.9235 56.1254 38.3877 56.1982C39.5236 56.3849 40.6514 55.822 41.1898 54.7996C41.7331 53.8603 41.5998 52.6741 40.8615 51.8804C40.1414 51.0134 38.941 50.7234 37.9074 51.1668C36.96 51.6445 35.8997 51.8492 34.8437 51.7582C33.1186 51.4531 31.8165 50.0153 31.6761 48.2608C31.589 46.503 32.7095 44.9132 34.3885 44.4124C34.5844 44.3519 34.7857 44.3025 34.9859 44.2595C37.4522 43.6933 38.4084 42.4915 38.3188 40.0001C38.0776 38.5437 38.0041 37.0643 38.0999 35.591C38.7734 32.0356 41.9893 29.5502 45.5817 29.8086C49.2095 30.0386 52.0546 33.0274 52.1226 36.6795C52.1226 36.8532 52.1172 37.028 52.1138 37.2017C52.0067 37.8352 52.167 38.4849 52.5564 38.9948C52.9457 39.5045 53.5288 39.8281 54.1654 39.8879C56.6636 40.4198 58.4101 42.6927 58.2901 45.256C58.1702 47.8193 56.2192 49.9176 53.6824 50.2115C51.1455 50.5055 48.7705 48.9086 48.0732 46.4399C47.4451 44.3179 46.979 43.9594 44.7185 43.911C43.5999 43.8419 42.4799 44.0183 41.436 44.4278C39.8905 45.0635 39.0999 46.794 39.6273 48.386C40.1318 49.6138 41.4924 50.244 42.749 49.832C43.1693 49.7041 43.579 49.5434 43.9745 49.3515C45.6697 48.5311 47.6985 48.9078 48.9901 50.2828C50.2273 51.5919 50.4755 53.5567 49.6028 55.1349C48.6824 56.7809 46.8054 57.6361 44.9669 57.2471C44.7939 57.2153 44.6243 57.1603 44.4515 57.1294C43.5484 56.8466 42.5644 57.037 41.8302 57.6366C41.0961 58.2361 40.7094 59.1651 40.8003 60.1113C40.8522 60.9816 40.7431 61.854 40.4786 62.6843C39.8887 64.2473 38.5967 65.437 36.9959 65.8915C36.7311 65.9751 36.3919 65.8827 36.2027 66.1752L34.6074 66.1774Z" fill="#F0C20C"/>
<path d="M28.9663 26.7416C28.9571 29.2374 27.198 31.3804 24.7615 31.8642C22.1625 32.3914 19.5564 30.9935 18.5456 28.5305C18.2411 27.6826 17.8871 26.8536 17.4854 26.0478C16.3744 23.6852 13.7621 22.435 11.2366 23.0571C10.429 23.2104 9.63022 23.4071 8.84363 23.6464C7.3762 24.1193 5.7817 23.9847 4.4133 23.2726C3.04492 22.5604 2.01557 21.3293 1.55325 19.852C0.658333 16.8746 2.32514 13.7301 5.28325 12.8151C6.74688 12.333 8.34138 12.457 9.71377 13.1596C11.0862 13.8623 12.1233 15.0856 12.5955 16.559C12.8442 17.3336 13.1458 18.09 13.4982 18.8228C14.5728 21.3846 17.3634 22.7569 20.0358 22.0378C20.7863 21.9036 21.5216 21.6826 22.2656 21.5133C23.8684 21.1413 25.5528 21.5138 26.8522 22.5275C28.1514 23.5414 28.9279 25.089 28.9663 26.7416ZM12.9019 13.7893C13.6585 13.8999 14.4297 13.8535 15.1678 13.6529C17.6121 13.2131 19.0608 14.0927 19.7634 16.4456C19.8553 16.7514 19.923 17.0647 20.0303 17.3649C20.634 19.0712 22.403 20.0632 24.1651 19.6837C25.5588 19.418 26.6594 18.341 26.9612 16.9481C27.2628 15.5553 26.7069 14.116 25.5493 13.2923C24.2297 12.2554 24.3084 11.0273 25.7309 10.1389C25.9793 9.98383 26.2418 9.84969 26.4815 9.68256C28.8058 8.09788 29.422 4.92524 27.8612 2.57858C26.2906 0.257534 23.21 -0.462956 20.7809 0.922696C19.1774 1.83011 18.1787 3.5294 18.162 5.3786C18.1452 7.22781 19.1131 8.94503 20.6999 9.88158C21.2608 10.1343 21.7375 10.5438 22.0731 11.0613C22.6038 12.1136 22.1027 12.9184 20.9362 12.8745C19.7343 12.8869 18.6329 12.2019 18.1078 11.1152C17.8069 10.4555 17.5767 9.76552 17.4208 9.05694C16.8844 7.16682 15.0286 5.97627 13.0966 6.28285C11.2665 6.54493 9.8915 8.09553 9.84251 9.95255C9.79352 11.8096 11.0848 13.4312 12.8986 13.7904L12.9019 13.7893Z" fill="#82BD00"/>
<path d="M52.0402 23.9131C50.1174 23.9733 48.2904 23.0692 47.1657 21.5006C46.5717 20.6323 45.876 19.839 45.0933 19.1378C43.4648 17.6308 41.077 17.2967 39.1006 18.2988C38.4891 18.5759 37.9244 18.952 37.3358 19.2797C35.7696 20.1818 33.7829 19.8019 32.6561 18.3847C31.4934 16.9983 31.6342 14.9352 32.9744 13.7216C34.5402 12.3571 34.3531 10.9299 32.6047 9.76331C30.5451 8.48627 29.6815 5.91711 30.5486 3.64669C31.4012 1.40389 33.6397 0.00983121 36.0177 0.240819C38.3958 0.471806 40.3272 2.27091 40.7365 4.63626C40.7583 4.74621 40.7648 4.86715 40.7868 4.9815C41.1073 6.61209 42.0997 7.16294 43.6721 6.5868C44.6582 6.13884 45.7859 6.12579 46.7821 6.55082C47.7783 6.97585 48.5521 7.8002 48.9163 8.82433C49.5852 10.7703 48.5825 12.8965 46.6603 13.6083C44.7411 14.3557 42.575 13.4681 41.7233 11.5852C41.6716 11.4799 41.6312 11.3693 41.603 11.2554C41.0767 8.67808 38.7724 9.13878 37.5053 10.5352C37.1461 10.8674 36.9412 11.3353 36.9402 11.8259C36.9392 12.3165 37.1421 12.7853 37.4999 13.1191C38.0942 13.7638 38.7279 14.3708 39.3971 14.9365C41.1319 16.5186 43.6878 16.7858 45.7094 15.5962C46.6474 15.0558 47.5341 14.4302 48.3583 13.7271C50.2276 12.2842 52.7807 12.1241 54.8139 13.3225C56.828 14.4853 57.9233 16.7729 57.5704 19.0801C57.2177 21.3873 55.4893 23.239 53.2207 23.7404C52.8308 23.8208 52.4367 23.8785 52.0402 23.9131ZM36.6881 31.7581C39.5416 31.7108 41.8206 29.3546 41.7864 26.4869C41.7522 23.619 39.4177 21.3183 36.5637 21.34C33.7098 21.3615 31.4098 23.697 31.4185 26.5651C31.4557 29.4575 33.8095 31.7771 36.6881 31.7581ZM59.2146 30.1671C59.1706 28.1363 57.5139 26.5162 55.4926 26.5272C53.4712 26.5384 51.8322 28.1767 51.8104 30.2077C51.8543 32.2385 53.511 33.8586 55.5324 33.8476C57.5537 33.8364 59.1927 32.1983 59.2146 30.1671Z" fill="#F05203"/>
<path d="M22.5967 66.1839C22.4042 65.9167 22.0792 65.9377 21.8121 65.8474C20.0599 65.3214 18.7203 63.8955 18.2982 62.1073C17.8764 60.319 18.4364 58.4405 19.7672 57.18C20.1514 56.8211 20.5166 56.4425 20.8614 56.0452C22.3933 54.164 22.4304 52.8567 20.9029 50.9798C20.0382 50.0649 19.5625 48.8473 19.5768 47.5856C19.6571 46.505 20.184 45.5075 21.0299 44.8353C21.8756 44.1632 22.963 43.8778 24.0278 44.0485C25.0474 44.1872 25.9678 44.7341 26.5801 45.5651C27.1922 46.396 27.4441 47.4404 27.2786 48.4608C27.1142 49.321 26.7183 50.1196 26.1341 50.7698C24.39 52.8171 24.4568 54.5356 26.3989 56.4378C27.495 57.3164 28.2762 58.5299 28.6245 59.8947C29.1321 62.5684 27.5142 65.1863 24.9043 65.9146C24.6657 65.9871 24.3572 65.9146 24.1931 66.1839H22.5967ZM17.208 30.8706C15.0291 29.7138 12.4082 29.7797 10.2896 31.0445C8.58273 31.9493 7.69209 31.5029 7.37477 29.6689C7.08267 27.6731 5.26275 26.2737 3.2694 26.5118C1.27604 26.7501 -0.166419 28.5396 0.0154691 30.5485C0.126399 31.6198 0.70092 32.5876 1.58621 33.1947C2.47152 33.8019 3.57785 33.9864 4.61094 33.6997C6.54431 33.161 7.22598 34.5925 7.00715 35.9318C6.61014 38.1254 7.35634 40.3708 8.98538 41.8845C9.75447 42.6003 10.4415 43.4002 11.0336 44.2695C11.8789 45.4202 12.036 46.9413 11.4439 48.2419C11.0252 49.0442 10.4934 49.7816 9.86509 50.4311C9.13206 51.2583 8.76551 52.3496 8.84972 53.454C8.93391 54.5583 9.46163 55.5807 10.3115 56.2861C11.981 57.7387 14.4745 57.6826 16.0778 56.1563C17.6833 54.6113 17.8068 52.0746 16.359 50.3794C15.3247 49.2826 14.8887 47.7474 15.1915 46.2672C15.7096 44.7919 16.6995 43.5307 18.0067 42.6807C19.8482 41.3618 20.961 39.246 21.008 36.9741C21.0069 34.3769 19.5317 32.0076 17.208 30.8706ZM9.37271 45.8957C9.43779 44.0842 8.40263 42.4141 6.75597 41.6741C5.10932 40.9341 3.18052 41.2719 1.88026 42.5284C0.580002 43.7847 0.168347 45.7082 0.83966 47.3907C1.51097 49.0732 3.13099 50.1781 4.9348 50.1838C6.09783 50.2367 7.23156 49.8079 8.07106 48.9973C8.91056 48.1868 9.38229 47.0655 9.37611 45.8957H9.37271ZM28.9177 38.1429C28.9616 36.7471 28.1604 35.4636 26.8907 34.8959C25.6211 34.3283 24.1359 34.5894 23.1336 35.5567C22.1313 36.524 21.8116 38.0047 22.3245 39.3023C22.8377 40.6002 24.0815 41.4567 25.4711 41.469C26.3669 41.4873 27.233 41.147 27.8792 40.5231C28.5252 39.8993 28.8979 39.0431 28.9154 38.1429H28.9177Z" fill="#696565"/>
</g>
<defs>
<clipPath id="clip0_51_1301">
<rect width="59" height="67" fill="white"/>
</clipPath>
</defs>
</svg>
